<?xml version="1.0" encoding="UTF-8" standalone="no"?>
<!-- Created with Inkscape (http://www.inkscape.org/) -->

<svg
   width="147.75101mm"
   height="31.981001mm"
   viewBox="0 0 147.75101 31.981001"
   version="1.1"
   id="svg5"
   xml:space="preserve"
   inkscape:version="1.2.2 (b0a8486541, 2022-12-01)"
   sodipodi:docname="WaterTwin.svg"
   xmlns:inkscape="http://www.inkscape.org/namespaces/inkscape"
   xmlns:sodipodi="http://sodipodi.sourceforge.net/DTD/sodipodi-0.dtd"
   xmlns="http://www.w3.org/2000/svg"
   xmlns:svg="http://www.w3.org/2000/svg"><sodipodi:namedview
     id="namedview7"
     pagecolor="#ffffff"
     bordercolor="#000000"
     borderopacity="0.25"
     inkscape:showpageshadow="2"
     inkscape:pageopacity="0.0"
     inkscape:pagecheckerboard="0"
     inkscape:deskcolor="#d1d1d1"
     inkscape:document-units="mm"
     showgrid="false"
     inkscape:zoom="2.1215981"
     inkscape:cx="233.78603"
     inkscape:cy="85.548719"
     inkscape:window-width="1854"
     inkscape:window-height="1011"
     inkscape:window-x="66"
     inkscape:window-y="32"
     inkscape:window-maximized="1"
     inkscape:current-layer="layer1" /><defs
     id="defs2" /><g
     inkscape:label="Layer 1"
     inkscape:groupmode="layer"
     id="layer1"
     transform="translate(-28.474377,-28.26924)"><path
       d="m 57.276206,52.825538 h 3.206048 l 3.454403,-11.627568 3.431826,11.627568 h 3.138314 L 75.20298,36.343743 H 71.996932 L 68.903773,47.835844 65.494526,36.343743 H 62.423945 L 58.992119,47.813266 55.966694,36.343743 h -3.273781 z"
       id="path443"
       style="font-weight:bold;font-size:22.5778px;font-family:'Sharp Sans';-inkscape-font-specification:'Sharp Sans Bold';stroke-width:0.264583" /><path
       d="m 78.928308,53.073893 c 1.919113,0 3.58987,-0.857956 4.470404,-2.122313 v 1.873958 h 3.002848 v -7.49583 c 0,-3.070581 -2.05458,-4.944539 -5.64445,-4.944539 -2.731914,0 -4.51556,1.151468 -5.757339,2.77707 l 2.86738,1.422401 c 0.564445,-1.016001 1.490135,-1.603024 2.867381,-1.603024 1.761068,0 2.641603,0.903112 2.641603,2.212625 v 0.158045 h -3.206048 c -3.38667,0 -5.486406,1.557868 -5.486406,4.086581 0,2.144892 1.580446,3.635026 4.244627,3.635026 z m 0.903112,-2.573869 c -1.286935,0 -1.896535,-0.451556 -1.896535,-1.33209 0,-0.948268 0.745067,-1.535291 2.596447,-1.535291 h 2.86738 V 48.2874 c -0.6096,1.309512 -2.077157,2.212624 -3.567292,2.212624 z"
       id="path445"
       style="font-weight:bold;font-size:22.5778px;font-family:'Sharp Sans';-inkscape-font-specification:'Sharp Sans Bold';stroke-width:0.264583" /><path
       d="m 87.688534,43.388017 h 2.25778 v 5.125161 c 0,3.318936 1.490135,4.538138 4.041426,4.538138 1.12889,0 2.122313,-0.338667 2.912536,-0.92569 l -1.422401,-2.438403 c -0.361245,0.316089 -0.699912,0.451556 -1.12889,0.451556 -0.790223,0 -1.33209,-0.451556 -1.33209,-1.73849 v -5.012272 h 3.206047 v -2.754492 h -3.206047 v -4.447827 l -3.070581,1.806224 v 2.641603 h -2.25778 z"
       id="path447"
       style="font-weight:bold;font-size:22.5778px;font-family:'Sharp Sans';-inkscape-font-specification:'Sharp Sans Bold';stroke-width:0.264583" /><path
       d="m 103.76395,53.073893 c 2.68676,0 4.40267,-1.106312 5.62187,-2.822225 l -2.55129,-1.490135 c -0.6096,0.993424 -1.58044,1.625602 -3.02542,1.625602 -1.80624,0 -3.09318,-0.993423 -3.49958,-2.573869 h 9.6859 V 46.63922 c 0,-3.612448 -2.64161,-6.254051 -6.29921,-6.254051 -3.63505,0 -6.389537,2.822225 -6.389537,6.36694 0,3.544715 2.528714,6.321784 6.457267,6.321784 z m -0.0677,-10.047121 c 1.6256,0 2.79965,0.835379 3.20605,2.348091 h -6.50246 c 0.49672,-1.422401 1.71592,-2.348091 3.29638,-2.348091 z"
       id="path449"
       style="font-weight:bold;font-size:22.5778px;font-family:'Sharp Sans';-inkscape-font-specification:'Sharp Sans Bold';stroke-width:0.264583" /><path
       d="m 112.02743,52.825538 h 3.09316 v -6.434674 c 0,-2.054579 1.03858,-2.86738 2.6416,-2.86738 0.69991,0 1.28694,0.180622 1.6256,0.428978 l 1.12889,-3.070581 c -0.51929,-0.270934 -1.24178,-0.474134 -2.05458,-0.474134 -1.55786,0 -2.77707,0.654756 -3.36409,2.099736 v -1.873958 h -3.07058 z"
       id="path451"
       style="font-weight:bold;font-size:22.5778px;font-family:'Sharp Sans';-inkscape-font-specification:'Sharp Sans Bold';stroke-width:0.264583" /><path
       d="m 126.49981,52.825538 h 3.13831 V 39.278857 h 4.53814 v -2.935114 h -12.25974 v 2.935114 h 4.58329 z"
       id="path453"
       style="font-weight:bold;font-size:22.5778px;font-family:'Sharp Sans';-inkscape-font-specification:'Sharp Sans Bold';stroke-width:0.264583" /><path
       d="m 137.85642,52.825538 h 2.98027 l 2.93511,-7.947386 2.91254,7.947386 h 2.93511 l 4.13174,-12.192013 h -3.16089 l -2.55129,7.992542 -2.84481,-7.992542 h -2.77707 l -2.88995,7.947386 -2.46098,-7.947386 h -3.1609 z"
       id="path455"
       style="font-weight:bold;font-size:22.5778px;font-family:'Sharp Sans';-inkscape-font-specification:'Sharp Sans Bold';stroke-width:0.264583" /><path
       d="m 155.33164,52.825538 h 3.18347 V 40.633525 h -3.18347 z m -0.4064,-15.623839 c 0,1.151468 0.8128,1.986847 1.98684,1.986847 1.19663,0 2.00943,-0.835379 2.00943,-1.986847 0,-1.174045 -0.8128,-2.032002 -2.00943,-2.032002 -1.15146,0 -1.98684,0.857957 -1.98684,2.032002 z"
       id="path457"
       style="font-weight:bold;font-size:22.5778px;font-family:'Sharp Sans';-inkscape-font-specification:'Sharp Sans Bold';stroke-width:0.264583" /><path
       d="m 160.9987,52.825538 h 3.13831 v -6.728185 c 0,-1.896535 1.12889,-2.98027 2.59645,-2.98027 1.64818,0 2.48356,1.083735 2.48356,2.822225 v 6.88623 h 3.18347 v -7.360363 c 0,-3.18347 -1.8288,-5.080006 -4.71876,-5.080006 -1.51272,0 -2.77707,0.677334 -3.5673,1.783647 v -1.535291 h -3.11573 z"
       id="path459"
       style="font-weight:bold;font-size:22.5778px;font-family:'Sharp Sans';-inkscape-font-specification:'Sharp Sans Bold';stroke-width:0.264583" /><path
       class="st0"
       d="m 42.08981,34.097965 c 2.287259,2.752698 4.09217,5.171362 5.601451,7.484857 1.322561,2.028958 2.637349,4.193997 2.862968,6.334298 0.124484,1.21861 -0.101137,2.362984 -0.700186,3.48881 -0.68462,1.292835 -1.80491,2.449588 -3.143038,3.253751 -1.392587,0.835082 -2.987442,1.280463 -4.605641,1.280463 v 0 c -1.275884,0 -2.497313,-0.259803 -3.648719,-0.767045 -1.089172,-0.482492 -2.092764,-1.200048 -2.894086,-2.059879 -1.874929,-2.010396 -2.52065,-4.596072 -1.695995,-6.742558 0.83244,-2.165042 2.155006,-4.478543 4.053275,-7.070409 1.299229,-1.781518 2.738486,-3.513555 4.169971,-5.202288 m 1.882708,21.842179 v 0 0 M 42.105364,31.444242 c -3.804316,4.429059 -8.028744,9.297313 -10.020374,14.493413 -1.968288,5.115679 2.971883,11.487089 10.020374,11.487089 4.278895,0 7.857595,-2.406288 9.468014,-5.443536 0.762424,-1.441293 0.98026,-2.833104 0.840214,-4.193993 C 52.164643,45.418044 50.818734,43.147844 49.348355,40.8962 47.216697,37.623892 44.71938,34.493858 42.105364,31.444242 Z"
       id="path246"
       style="stroke-width:0.0693716" /></g><style
     type="text/css"
     id="style244">
	.st0{fill:#6040EC;}
	.st1{fill:#0BDC49;}
</style></svg>
